<svg width="293" height="53" viewBox="0 0 293 53" fill="none" xmlns="http://www.w3.org/2000/svg">
<g opacity="0.4" clip-path="url(#clip0_6_251)">
<path d="M7.93817 4.14382C8.29412 4.14382 8.5827 3.85524 8.5827 3.49929V2.20142C8.5827 1.84546 8.29412 1.55688 7.93817 1.55688C7.58222 1.55688 7.29364 1.84546 7.29364 2.20142V3.49929C7.29364 3.85524 7.58222 4.14382 7.93817 4.14382Z" fill="#F1F1F1"/>
<path d="M2.09091 6.5046L0.966887 5.85564C0.658586 5.67758 0.26439 5.78329 0.0864564 6.09154C-0.0915203 6.39985 0.014097 6.79404 0.322355 6.97198L1.44638 7.62093C1.75395 7.79857 2.14844 7.69402 2.32681 7.38504C2.50478 7.07673 2.39916 6.68254 2.09091 6.5046Z" fill="#F1F1F1"/>
<path d="M1.44637 13.6314L0.32235 14.2803C-0.246556 14.6087 -0.0129782 15.4831 0.645217 15.4831C0.937276 15.4831 1.01105 15.342 2.09086 14.7477C2.39912 14.5697 2.50473 14.1756 2.32676 13.8673C2.14882 13.559 1.75471 13.4533 1.44637 13.6314Z" fill="#F1F1F1"/>
<path d="M14.4299 7.62092L15.5539 6.97197C15.8622 6.79399 15.9678 6.39984 15.7898 6.09154C15.6119 5.78329 15.2177 5.67758 14.9094 5.85564L13.7854 6.5046C13.4771 6.68258 13.3715 7.07673 13.5495 7.38503C13.7283 7.69483 14.1231 7.79813 14.4299 7.62092Z" fill="#F1F1F1"/>
<path d="M6.63545 12.2589C7.11382 9.63717 9.2253 7.62895 11.8611 7.2831C10.9147 6.17338 9.50726 5.4684 7.93813 5.4684C5.09497 5.4684 2.78192 7.78232 2.78192 10.6265C2.78192 11.9849 3.30979 13.2221 4.17084 14.1442C4.76695 13.2691 5.63702 12.6013 6.63545 12.2589Z" fill="#F1F1F1"/>
<path d="M17.1405 11.5418C16.4106 9.73757 14.6417 8.52026 12.6587 8.52026C9.9997 8.52026 7.85337 10.6637 7.82527 13.3068C5.99458 13.5077 4.60205 15.078 4.60205 16.9203C4.60205 18.9249 6.23233 20.5558 8.23618 20.5558C18.3773 20.5452 17.8224 20.5817 17.999 20.5269C20.2518 20.2727 22 18.3614 22 16.0425C22 13.3944 19.7381 11.3383 17.1405 11.5418Z" fill="#F1F1F1"/>
</g>
<path d="M65.9992 10.7115C65.9666 10.6572 65.9206 10.6123 65.8655 10.5811C65.8104 10.5498 65.7482 10.5334 65.6849 10.5333H64.3151C64.2518 10.5334 64.1896 10.5497 64.1345 10.5809C64.0795 10.6121 64.0334 10.6569 64.0008 10.7112L63.3408 11.8112C63.3066 11.8682 63.2886 11.9334 63.2886 11.9998C63.2886 12.0663 63.3066 12.1315 63.3408 12.1885L64.0008 13.2885C64.0334 13.3428 64.0794 13.3877 64.1345 13.419C64.1895 13.4502 64.2518 13.4666 64.3151 13.4667H65.6849C65.7482 13.4667 65.8104 13.4503 65.8655 13.4191C65.9205 13.388 65.9666 13.3431 65.9992 13.2888L66.6592 12.1888C66.6934 12.1319 66.7114 12.0666 66.7114 12.0002C66.7114 11.9337 66.6934 11.8685 66.6592 11.8115L65.9992 10.7115Z" fill="#2194FF"/>
<path d="M73.9038 16.2937L72.4371 15.4478L73.6167 15.0144C73.7936 14.9537 73.942 14.8301 74.0338 14.6671C74.1255 14.5041 74.1541 14.3131 74.1143 14.1303C74.0889 14.0309 74.0429 13.9379 73.9794 13.8573C73.9158 13.7767 73.836 13.7104 73.7452 13.6626C73.6543 13.6148 73.5545 13.5866 73.4521 13.5798C73.3497 13.573 73.247 13.5878 73.1507 13.6232L70.7849 14.4933L68.9274 13.4205L69.5467 12.3729C69.6134 12.26 69.6486 12.1312 69.6486 12C69.6486 11.8688 69.6134 11.7401 69.5467 11.6271L68.9278 10.5795L70.7849 9.50667L73.1507 10.3768C73.2516 10.414 73.3596 10.4285 73.4669 10.4194C73.5741 10.4102 73.678 10.3775 73.7712 10.3236C73.8644 10.2698 73.9446 10.196 74.0061 10.1077C74.0676 10.0194 74.1089 9.91857 74.1271 9.81247C74.1521 9.63793 74.1155 9.46012 74.0235 9.30967C73.9316 9.15922 73.79 9.04554 73.6233 8.98821L72.4382 8.55334L73.9049 7.70597C74.0684 7.61628 74.1933 7.46955 74.2556 7.29375C74.318 7.11794 74.3135 6.92534 74.243 6.75264C74.2011 6.65881 74.14 6.57482 74.0636 6.50612C73.9872 6.43742 73.8972 6.38554 73.7995 6.35384C73.7018 6.32213 73.5985 6.31132 73.4963 6.3221C73.3941 6.33288 73.2953 6.36501 73.2064 6.41641L71.7031 7.28357L71.9168 6.04717C71.9515 5.87155 71.9234 5.68931 71.8374 5.53229C71.7515 5.37526 71.6131 5.25343 71.4464 5.18807C71.3458 5.15246 71.2386 5.13925 71.1323 5.14936C71.026 5.15947 70.9233 5.19266 70.8311 5.24661C70.739 5.30055 70.6598 5.37396 70.599 5.4617C70.5382 5.54943 70.4973 5.64938 70.4791 5.75457L70.0498 8.23837L68.1798 9.31821L67.5949 8.32821C67.5304 8.21843 67.4383 8.12737 67.3279 8.06398C67.2174 8.00058 67.0923 7.96705 66.965 7.96667H65.7334V5.74357L67.64 4.15517C67.7796 4.04379 67.8756 3.88686 67.9112 3.71185C67.9468 3.53683 67.9197 3.35487 67.8347 3.19781C67.7811 3.10554 67.708 3.0261 67.6205 2.96501C67.533 2.90393 67.4332 2.86268 67.3281 2.84414C67.223 2.8256 67.1151 2.83022 67.012 2.85767C66.9089 2.88513 66.813 2.93476 66.7311 3.00311L65.7334 3.83434V2.13924C65.7373 1.96073 65.6784 1.78651 65.5668 1.64708C65.4553 1.50765 65.2982 1.4119 65.1232 1.37657C65.018 1.35863 64.9101 1.3639 64.8071 1.39199C64.704 1.42009 64.6084 1.47034 64.5268 1.53924C64.4453 1.60814 64.3797 1.69401 64.3348 1.79087C64.2899 1.88773 64.2666 1.99323 64.2667 2.10001V3.83434L63.2994 3.02767C63.1648 2.91051 62.9932 2.84444 62.8148 2.84102C62.6363 2.8376 62.4624 2.89706 62.3234 3.00897C62.2422 3.07837 62.1772 3.16466 62.1328 3.2618C62.0885 3.35895 62.0659 3.46461 62.0666 3.5714C62.0673 3.67818 62.0914 3.78352 62.137 3.88005C62.1827 3.97658 62.2489 4.06196 62.3311 4.13024L64.2671 5.74357V7.96667H63.0351C62.9076 7.96668 62.7823 7.99993 62.6715 8.06314C62.5608 8.12634 62.4685 8.21733 62.4037 8.32711L61.8188 9.31711L59.9488 8.23727L59.5268 5.79491C59.4989 5.6101 59.404 5.44199 59.2603 5.32249C59.1166 5.20298 58.9341 5.14041 58.7473 5.14664C58.6448 5.1536 58.5449 5.18202 58.4541 5.23004C58.3633 5.27806 58.2836 5.34462 58.2202 5.4254C58.1568 5.50619 58.111 5.59939 58.0859 5.69899C58.0608 5.79858 58.0569 5.90234 58.0744 6.00354L58.2944 7.28247L56.8278 6.43474C56.6752 6.34197 56.4949 6.30583 56.3184 6.33264C56.1419 6.35946 55.9804 6.44752 55.8623 6.58141C55.7942 6.66357 55.7448 6.75962 55.7176 6.86285C55.6905 6.96608 55.6862 7.07399 55.705 7.17905C55.7239 7.28412 55.7654 7.3838 55.8268 7.47114C55.8882 7.55847 55.9679 7.63136 56.0603 7.68471L57.5637 8.55187L56.3779 8.98784C56.211 9.04517 56.0693 9.15887 55.9772 9.30938C55.8851 9.4599 55.8484 9.6378 55.8733 9.81247C55.8915 9.91857 55.9328 10.0194 55.9943 10.1077C56.0558 10.196 56.136 10.2698 56.2292 10.3236C56.3224 10.3775 56.4263 10.4102 56.5336 10.4194C56.6408 10.4285 56.7488 10.414 56.8498 10.3768L59.2151 9.50667L61.0727 10.5795L60.4534 11.6271C60.3867 11.7401 60.3515 11.8688 60.3515 12C60.3515 12.1312 60.3867 12.26 60.4534 12.3729L61.0723 13.4205L59.2151 14.4933L56.8498 13.6232C56.7534 13.5878 56.6507 13.5729 56.5483 13.5796C56.4459 13.5864 56.346 13.6145 56.2551 13.6623C56.1642 13.71 56.0844 13.7764 56.0208 13.8569C55.9572 13.9375 55.9112 14.0305 55.8858 14.13C55.8459 14.3128 55.8745 14.5038 55.9663 14.6669C56.058 14.8299 56.2064 14.9536 56.3834 15.0144L57.5618 15.4467L56.0985 16.29C55.9324 16.3809 55.806 16.5302 55.7439 16.709C55.6817 16.8878 55.6881 17.0833 55.7619 17.2576C55.8049 17.3497 55.8666 17.4319 55.943 17.4989C56.0195 17.5659 56.109 17.6163 56.2059 17.6468C56.3029 17.6774 56.4051 17.6874 56.5062 17.6764C56.6072 17.6653 56.7049 17.6333 56.7929 17.5825L58.2963 16.7153L58.0818 17.9569C58.0597 18.0643 58.0615 18.1752 58.0871 18.2818C58.1126 18.3885 58.1612 18.4882 58.2294 18.574C58.2977 18.6598 58.3839 18.7296 58.4821 18.7784C58.5802 18.8273 58.6879 18.854 58.7975 18.8567C58.9702 18.8564 59.1372 18.7952 59.2693 18.6839C59.4013 18.5725 59.4897 18.4182 59.5191 18.248L59.9485 15.7642L61.8185 14.6844L62.4033 15.6744C62.4683 15.7839 62.5608 15.8747 62.6716 15.9376C62.7824 16.0006 62.9076 16.0335 63.0351 16.0333H64.2667V18.2564L62.36 19.8467C62.2205 19.9579 62.1246 20.1148 62.0891 20.2897C62.0536 20.4646 62.0809 20.6465 62.1661 20.8033C62.2197 20.8956 62.2928 20.975 62.3803 21.0361C62.4678 21.0972 62.5676 21.1384 62.6727 21.157C62.7778 21.1755 62.8856 21.1709 62.9888 21.1434C63.0919 21.116 63.1878 21.0664 63.2697 20.998L64.2667 20.1657V21.8608C64.2627 22.0393 64.3217 22.2135 64.4332 22.3529C64.5448 22.4924 64.7018 22.5881 64.8768 22.6234C64.9821 22.6414 65.09 22.6361 65.193 22.608C65.296 22.5799 65.3916 22.5297 65.4732 22.4608C65.5548 22.3919 65.6203 22.306 65.6653 22.2091C65.7102 22.1123 65.7334 22.0068 65.7334 21.9V20.1657L66.7307 20.9969C66.8144 21.0667 66.9126 21.117 67.0181 21.1442C67.1237 21.1713 67.234 21.1745 67.3409 21.1537C67.4479 21.1328 67.5489 21.0884 67.6365 21.0236C67.7242 20.9588 67.7962 20.8753 67.8476 20.7791C67.9255 20.6241 67.9477 20.4471 67.9106 20.2777C67.8735 20.1082 67.7793 19.9567 67.6437 19.8485L65.7334 18.2564V16.0333H66.965C67.0925 16.0333 67.2178 16.0001 67.3285 15.9369C67.4392 15.8737 67.5316 15.7827 67.5964 15.6729L68.1812 14.6829L70.0512 15.7627L70.4806 18.2465C70.5099 18.4167 70.5984 18.5711 70.7304 18.6824C70.8624 18.7938 71.0295 18.855 71.2022 18.8552C71.312 18.8518 71.4198 18.8245 71.518 18.7751C71.6162 18.7257 71.7024 18.6554 71.7705 18.5692C71.8387 18.483 71.8872 18.383 71.9127 18.276C71.9381 18.1691 71.9399 18.058 71.9179 17.9503L71.7045 16.7175L73.2079 17.5847C73.2959 17.6356 73.3935 17.6676 73.4946 17.6788C73.5957 17.6899 73.698 17.6799 73.795 17.6494C73.8919 17.6188 73.9815 17.5685 74.058 17.5015C74.1345 17.4345 74.1962 17.3523 74.2393 17.2602C74.3131 17.0862 74.3196 16.8909 74.2576 16.7123C74.1957 16.5338 74.0695 16.3846 73.9038 16.2937ZM67.288 12.5658L66.628 13.6658C66.53 13.8283 66.3917 13.9629 66.2265 14.0565C66.0613 14.1501 65.8748 14.1995 65.685 14.2H64.3151C64.1252 14.1995 63.9387 14.1501 63.7735 14.0565C63.6084 13.9629 63.4701 13.8283 63.372 13.6658L62.712 12.5658C62.6091 12.395 62.5547 12.1994 62.5547 12C62.5547 11.8006 62.6091 11.605 62.712 11.4342L63.372 10.3342C63.4701 10.1717 63.6084 10.0371 63.7735 9.94352C63.9387 9.84995 64.1252 9.80052 64.3151 9.80001H65.685C65.8748 9.80052 66.0613 9.84995 66.2265 9.94352C66.3917 10.0371 66.53 10.1717 66.628 10.3342L67.288 11.4342C67.391 11.605 67.4453 11.8006 67.4453 12C67.4453 12.1994 67.391 12.395 67.288 12.5658Z" fill="#2194FF"/>
<path d="M1.60938 36.5781H4.74219C6.15365 36.5781 7.1849 36.7995 7.83594 37.2422C8.49219 37.6849 8.82031 38.3906 8.82031 39.3594C8.82031 39.7969 8.73438 40.1953 8.5625 40.5547C8.39583 40.9141 8.14583 41.2161 7.8125 41.4609C7.48438 41.7005 7.07812 41.8646 6.59375 41.9531V42.0078C7.17188 42.0964 7.64844 42.2578 8.02344 42.4922C8.40365 42.7214 8.6849 43.026 8.86719 43.4062C9.05469 43.7812 9.14844 44.2292 9.14844 44.75C9.14844 45.5 8.97656 46.1146 8.63281 46.5938C8.29427 47.0729 7.82292 47.4271 7.21875 47.6562C6.61458 47.8854 5.91667 48 5.125 48H1.60938V36.5781ZM2.41406 41.6562H4.94531C6.01823 41.6562 6.79427 41.4688 7.27344 41.0938C7.7526 40.7188 7.99219 40.1641 7.99219 39.4297C7.99219 38.6693 7.73438 38.1224 7.21875 37.7891C6.70312 37.4557 5.8776 37.2891 4.74219 37.2891H2.41406V41.6562ZM2.41406 42.3594V47.2891H5.10156C6.15885 47.2891 6.95573 47.0755 7.49219 46.6484C8.02865 46.2161 8.29688 45.5729 8.29688 44.7188C8.29688 44.1562 8.17188 43.7031 7.92188 43.3594C7.67188 43.0104 7.29688 42.7578 6.79688 42.6016C6.30208 42.4401 5.6849 42.3594 4.94531 42.3594H2.41406ZM12.2422 39.5078V43.2266H17.5938V39.5078H18.3828V48H17.5938V43.9219H12.2422V48H11.4453V39.5078H12.2422ZM24.4375 39.3438C25.1615 39.3438 25.763 39.513 26.2422 39.8516C26.7266 40.1901 27.0859 40.6536 27.3203 41.2422C27.5599 41.8307 27.6797 42.5052 27.6797 43.2656V43.8359H21.5469C21.5469 45.0026 21.8151 45.8984 22.3516 46.5234C22.8932 47.1484 23.6667 47.4609 24.6719 47.4609C25.1979 47.4609 25.6536 47.4193 26.0391 47.3359C26.4297 47.2474 26.862 47.099 27.3359 46.8906V47.6172C26.9193 47.8047 26.5026 47.9401 26.0859 48.0234C25.6693 48.112 25.1901 48.1562 24.6484 48.1562C23.7891 48.1562 23.0677 47.9792 22.4844 47.625C21.9062 47.2656 21.4688 46.7604 21.1719 46.1094C20.8802 45.4583 20.7344 44.6979 20.7344 43.8281C20.7344 42.9792 20.875 42.2161 21.1562 41.5391C21.4427 40.862 21.8594 40.3281 22.4062 39.9375C22.9583 39.5417 23.6354 39.3438 24.4375 39.3438ZM24.4297 40.0234C23.6172 40.0234 22.9583 40.2943 22.4531 40.8359C21.9531 41.3724 21.6589 42.1484 21.5703 43.1641H26.8594C26.8594 42.5443 26.7708 41.9974 26.5938 41.5234C26.4167 41.0495 26.1484 40.6823 25.7891 40.4219C25.4349 40.1562 24.9818 40.0234 24.4297 40.0234ZM36.125 39.3438C36.7083 39.3438 37.2057 39.4297 37.6172 39.6016C38.0286 39.7734 38.3411 40.0234 38.5547 40.3516C38.7734 40.6745 38.8828 41.0677 38.8828 41.5312C38.8828 42.0208 38.7526 42.4271 38.4922 42.75C38.2318 43.0677 37.8646 43.2943 37.3906 43.4297V43.4766C37.7865 43.5651 38.1172 43.7057 38.3828 43.8984C38.6536 44.0911 38.8568 44.3333 38.9922 44.625C39.1276 44.9115 39.1953 45.2422 39.1953 45.6172C39.1953 46.138 39.0625 46.5885 38.7969 46.9688C38.5365 47.349 38.1641 47.6432 37.6797 47.8516C37.1953 48.0547 36.6146 48.1562 35.9375 48.1562C35.5625 48.1562 35.2083 48.1328 34.875 48.0859C34.5417 48.0391 34.2396 47.974 33.9688 47.8906C33.7031 47.8021 33.4714 47.7057 33.2734 47.6016V46.8281C33.6536 47.0312 34.0651 47.1901 34.5078 47.3047C34.9557 47.4193 35.4323 47.4766 35.9375 47.4766C36.4167 47.4766 36.8411 47.4062 37.2109 47.2656C37.5807 47.125 37.8724 46.9141 38.0859 46.6328C38.2995 46.3516 38.4062 45.9974 38.4062 45.5703C38.4062 45.1641 38.3099 44.8359 38.1172 44.5859C37.9245 44.3307 37.6406 44.1458 37.2656 44.0312C36.8906 43.9115 36.4271 43.8516 35.875 43.8516H34.7344V43.1719H35.7891C36.4974 43.1719 37.0625 43.0443 37.4844 42.7891C37.9062 42.5286 38.1172 42.125 38.1172 41.5781C38.1172 41.0729 37.9427 40.6901 37.5938 40.4297C37.25 40.1641 36.75 40.0312 36.0938 40.0312C35.6302 40.0312 35.2161 40.0859 34.8516 40.1953C34.487 40.2995 34.112 40.4401 33.7266 40.6172L33.4375 39.9531C33.8333 39.7708 34.2474 39.625 34.6797 39.5156C35.1172 39.401 35.599 39.3438 36.125 39.3438ZM44.375 39.3594C45.3073 39.3594 46.0052 39.5938 46.4688 40.0625C46.9323 40.5312 47.1641 41.2786 47.1641 42.3047V48H46.5547L46.4141 46.5156H46.3672C46.1849 46.8333 45.9635 47.1172 45.7031 47.3672C45.4427 47.612 45.1224 47.8047 44.7422 47.9453C44.3672 48.0859 43.9089 48.1562 43.3672 48.1562C42.8203 48.1562 42.3516 48.0651 41.9609 47.8828C41.5755 47.7005 41.276 47.4349 41.0625 47.0859C40.8542 46.737 40.75 46.3125 40.75 45.8125C40.75 44.9688 41.099 44.3281 41.7969 43.8906C42.4948 43.4479 43.4974 43.1979 44.8047 43.1406L46.3828 43.0625V42.4453C46.3828 41.5755 46.2109 40.9557 45.8672 40.5859C45.5234 40.2161 45.0156 40.0312 44.3438 40.0312C43.9062 40.0312 43.4844 40.0885 43.0781 40.2031C42.6771 40.3125 42.2682 40.4714 41.8516 40.6797L41.6016 40.0234C42.0078 39.8307 42.4427 39.6719 42.9062 39.5469C43.375 39.4219 43.8646 39.3594 44.375 39.3594ZM46.375 43.6797L44.8906 43.7422C43.8125 43.7943 42.9922 43.987 42.4297 44.3203C41.8672 44.6536 41.5859 45.1536 41.5859 45.8203C41.5859 46.3568 41.7526 46.7682 42.0859 47.0547C42.4245 47.3411 42.8932 47.4844 43.4922 47.4844C44.4245 47.4844 45.1354 47.2188 45.625 46.6875C46.1198 46.1562 46.3698 45.4323 46.375 44.5156V43.6797ZM56.2578 41.5781C56.2578 42.1146 56.1172 42.5365 55.8359 42.8438C55.5599 43.151 55.1927 43.3594 54.7344 43.4688V43.5156C55.2917 43.599 55.7396 43.8099 56.0781 44.1484C56.4219 44.4818 56.5938 44.9609 56.5938 45.5859C56.5938 46.0807 56.4844 46.5078 56.2656 46.8672C56.0469 47.2266 55.7109 47.5052 55.2578 47.7031C54.8099 47.901 54.2344 48 53.5312 48H49.8984V39.5078H53.4375C54.0625 39.5078 54.5833 39.5885 55 39.75C55.4167 39.9062 55.7292 40.138 55.9375 40.4453C56.151 40.7474 56.2578 41.125 56.2578 41.5781ZM55.7734 45.5859C55.7734 44.9766 55.5677 44.5391 55.1562 44.2734C54.7448 44.0078 54.1406 43.875 53.3438 43.875H50.6953V47.3281H53.3906C54.1875 47.3281 54.7839 47.1875 55.1797 46.9062C55.5755 46.6198 55.7734 46.1797 55.7734 45.5859ZM55.4531 41.6406C55.4531 41.1927 55.2943 40.8411 54.9766 40.5859C54.6589 40.3255 54.1198 40.1953 53.3594 40.1953H50.6953V43.1797H53.2812C54.0312 43.1797 54.5807 43.0521 54.9297 42.7969C55.2786 42.5365 55.4531 42.151 55.4531 41.6406ZM59.7266 39.5078V45.6094C59.7266 45.7292 59.724 45.8516 59.7188 45.9766C59.7188 46.1016 59.7161 46.2292 59.7109 46.3594C59.7109 46.4896 59.7083 46.6172 59.7031 46.7422C59.6979 46.8672 59.6901 46.9896 59.6797 47.1094L64.75 39.5078H65.7188V48H64.9688V41.8438C64.9688 41.6875 64.9688 41.526 64.9688 41.3594C64.974 41.1875 64.9792 41.0182 64.9844 40.8516C64.9896 40.6797 64.9948 40.5182 65 40.3672L59.9062 48H58.9609V39.5078H59.7266ZM71.9688 48.1562C71.125 48.1562 70.4115 47.9818 69.8281 47.6328C69.25 47.2786 68.8125 46.776 68.5156 46.125C68.224 45.4688 68.0781 44.6927 68.0781 43.7969C68.0781 42.8646 68.2474 42.0677 68.5859 41.4062C68.9245 40.7396 69.401 40.2292 70.0156 39.875C70.6302 39.5208 71.3516 39.3438 72.1797 39.3438C72.5859 39.3438 72.9635 39.3802 73.3125 39.4531C73.6615 39.526 73.9766 39.6276 74.2578 39.7578L74.0469 40.4531C73.7552 40.3229 73.4453 40.224 73.1172 40.1562C72.7891 40.0885 72.474 40.0547 72.1719 40.0547C71.474 40.0547 70.8802 40.2083 70.3906 40.5156C69.9062 40.8177 69.5339 41.25 69.2734 41.8125C69.0182 42.3698 68.8906 43.0286 68.8906 43.7891C68.8906 44.5026 69 45.1354 69.2188 45.6875C69.4375 46.2344 69.7734 46.6667 70.2266 46.9844C70.6797 47.2969 71.2604 47.4531 71.9688 47.4531C72.3802 47.4531 72.7708 47.4115 73.1406 47.3281C73.5156 47.2448 73.8568 47.138 74.1641 47.0078V47.7266C73.888 47.8516 73.5677 47.9531 73.2031 48.0312C72.8438 48.1146 72.4323 48.1562 71.9688 48.1562ZM76.9453 39.5078V45.6094C76.9453 45.7292 76.9427 45.8516 76.9375 45.9766C76.9375 46.1016 76.9349 46.2292 76.9297 46.3594C76.9297 46.4896 76.9271 46.6172 76.9219 46.7422C76.9167 46.8672 76.9089 46.9896 76.8984 47.1094L81.9688 39.5078H82.9375V48H82.1875V41.8438C82.1875 41.6875 82.1875 41.526 82.1875 41.3594C82.1927 41.1875 82.1979 41.0182 82.2031 40.8516C82.2083 40.6797 82.2135 40.5182 82.2188 40.3672L77.125 48H76.1797V39.5078H76.9453ZM94.0547 39.5078V48H93.3203V41.8906C93.3203 41.6615 93.3229 41.4427 93.3281 41.2344C93.3385 41.026 93.349 40.8021 93.3594 40.5625H93.3203L90.2422 48H89.5547L86.5 40.5547H86.4609C86.4714 40.7943 86.4792 41.0208 86.4844 41.2344C86.4896 41.4427 86.4922 41.6771 86.4922 41.9375V48H85.75V39.5078H86.8359L89.9062 47.0078L92.9922 39.5078H94.0547ZM103.625 43.7422C103.625 44.3984 103.544 44.9974 103.383 45.5391C103.221 46.0755 102.982 46.5391 102.664 46.9297C102.346 47.3203 101.951 47.6224 101.477 47.8359C101.008 48.0495 100.461 48.1562 99.8359 48.1562C99.2422 48.1562 98.7135 48.0521 98.25 47.8438C97.7865 47.6302 97.3932 47.3281 97.0703 46.9375C96.7526 46.5469 96.5104 46.0833 96.3438 45.5469C96.1771 45.0052 96.0938 44.4036 96.0938 43.7422C96.0938 42.8307 96.2448 42.0469 96.5469 41.3906C96.8542 40.7292 97.2917 40.224 97.8594 39.875C98.4323 39.5208 99.1172 39.3438 99.9141 39.3438C100.737 39.3438 101.422 39.5312 101.969 39.9062C102.521 40.276 102.935 40.7917 103.211 41.4531C103.487 42.1146 103.625 42.8776 103.625 43.7422ZM96.9062 43.7422C96.9062 44.487 97.013 45.138 97.2266 45.6953C97.4401 46.2526 97.763 46.6875 98.1953 47C98.6328 47.3125 99.1849 47.4688 99.8516 47.4688C100.534 47.4688 101.094 47.3125 101.531 47C101.969 46.6875 102.292 46.25 102.5 45.6875C102.708 45.125 102.812 44.4766 102.812 43.7422C102.812 43.0286 102.714 42.3932 102.516 41.8359C102.318 41.2786 102.005 40.8411 101.578 40.5234C101.151 40.2005 100.594 40.0391 99.9062 40.0391C98.9219 40.0391 98.1745 40.3672 97.6641 41.0234C97.1589 41.6797 96.9062 42.5859 96.9062 43.7422ZM109.375 48.1562C108.531 48.1562 107.818 47.9818 107.234 47.6328C106.656 47.2786 106.219 46.776 105.922 46.125C105.63 45.4688 105.484 44.6927 105.484 43.7969C105.484 42.8646 105.654 42.0677 105.992 41.4062C106.331 40.7396 106.807 40.2292 107.422 39.875C108.036 39.5208 108.758 39.3438 109.586 39.3438C109.992 39.3438 110.37 39.3802 110.719 39.4531C111.068 39.526 111.383 39.6276 111.664 39.7578L111.453 40.4531C111.161 40.3229 110.852 40.224 110.523 40.1562C110.195 40.0885 109.88 40.0547 109.578 40.0547C108.88 40.0547 108.286 40.2083 107.797 40.5156C107.312 40.8177 106.94 41.25 106.68 41.8125C106.424 42.3698 106.297 43.0286 106.297 43.7891C106.297 44.5026 106.406 45.1354 106.625 45.6875C106.844 46.2344 107.18 46.6667 107.633 46.9844C108.086 47.2969 108.667 47.4531 109.375 47.4531C109.786 47.4531 110.177 47.4115 110.547 47.3281C110.922 47.2448 111.263 47.138 111.57 47.0078V47.7266C111.294 47.8516 110.974 47.9531 110.609 48.0312C110.25 48.1146 109.839 48.1562 109.375 48.1562ZM118.992 40.2031H116.117V48H115.344V40.2031H112.484V39.5078H118.992V40.2031ZM121.492 39.5078V45.6094C121.492 45.7292 121.49 45.8516 121.484 45.9766C121.484 46.1016 121.482 46.2292 121.477 46.3594C121.477 46.4896 121.474 46.6172 121.469 46.7422C121.464 46.8672 121.456 46.9896 121.445 47.1094L126.516 39.5078H127.484V48H126.734V41.8438C126.734 41.6875 126.734 41.526 126.734 41.3594C126.74 41.1875 126.745 41.0182 126.75 40.8516C126.755 40.6797 126.76 40.5182 126.766 40.3672L121.672 48H120.727V39.5078H121.492ZM141.531 43.7422C141.531 44.3984 141.451 44.9974 141.289 45.5391C141.128 46.0755 140.888 46.5391 140.57 46.9297C140.253 47.3203 139.857 47.6224 139.383 47.8359C138.914 48.0495 138.367 48.1562 137.742 48.1562C137.148 48.1562 136.62 48.0521 136.156 47.8438C135.693 47.6302 135.299 47.3281 134.977 46.9375C134.659 46.5469 134.417 46.0833 134.25 45.5469C134.083 45.0052 134 44.4036 134 43.7422C134 42.8307 134.151 42.0469 134.453 41.3906C134.76 40.7292 135.198 40.224 135.766 39.875C136.339 39.5208 137.023 39.3438 137.82 39.3438C138.643 39.3438 139.328 39.5312 139.875 39.9062C140.427 40.276 140.841 40.7917 141.117 41.4531C141.393 42.1146 141.531 42.8776 141.531 43.7422ZM134.812 43.7422C134.812 44.487 134.919 45.138 135.133 45.6953C135.346 46.2526 135.669 46.6875 136.102 47C136.539 47.3125 137.091 47.4688 137.758 47.4688C138.44 47.4688 139 47.3125 139.438 47C139.875 46.6875 140.198 46.25 140.406 45.6875C140.615 45.125 140.719 44.4766 140.719 43.7422C140.719 43.0286 140.62 42.3932 140.422 41.8359C140.224 41.2786 139.911 40.8411 139.484 40.5234C139.057 40.2005 138.5 40.0391 137.812 40.0391C136.828 40.0391 136.081 40.3672 135.57 41.0234C135.065 41.6797 134.812 42.5859 134.812 43.7422ZM149.289 40.2031H146.414V48H145.641V40.2031H142.781V39.5078H149.289V40.2031ZM161.953 39.5078V48H161.164V40.2031H155.977V48H155.18V39.5078H161.953ZM171.844 43.7422C171.844 44.3984 171.763 44.9974 171.602 45.5391C171.44 46.0755 171.201 46.5391 170.883 46.9297C170.565 47.3203 170.169 47.6224 169.695 47.8359C169.227 48.0495 168.68 48.1562 168.055 48.1562C167.461 48.1562 166.932 48.0521 166.469 47.8438C166.005 47.6302 165.612 47.3281 165.289 46.9375C164.971 46.5469 164.729 46.0833 164.562 45.5469C164.396 45.0052 164.312 44.4036 164.312 43.7422C164.312 42.8307 164.464 42.0469 164.766 41.3906C165.073 40.7292 165.51 40.224 166.078 39.875C166.651 39.5208 167.336 39.3438 168.133 39.3438C168.956 39.3438 169.641 39.5312 170.188 39.9062C170.74 40.276 171.154 40.7917 171.43 41.4531C171.706 42.1146 171.844 42.8776 171.844 43.7422ZM165.125 43.7422C165.125 44.487 165.232 45.138 165.445 45.6953C165.659 46.2526 165.982 46.6875 166.414 47C166.852 47.3125 167.404 47.4688 168.07 47.4688C168.753 47.4688 169.312 47.3125 169.75 47C170.188 46.6875 170.51 46.25 170.719 45.6875C170.927 45.125 171.031 44.4766 171.031 43.7422C171.031 43.0286 170.932 42.3932 170.734 41.8359C170.536 41.2786 170.224 40.8411 169.797 40.5234C169.37 40.2005 168.812 40.0391 168.125 40.0391C167.141 40.0391 166.393 40.3672 165.883 41.0234C165.378 41.6797 165.125 42.5859 165.125 43.7422ZM179.195 39.5078V40.2031H174.992V48H174.195V39.5078H179.195ZM187.984 43.7422C187.984 44.3984 187.904 44.9974 187.742 45.5391C187.581 46.0755 187.341 46.5391 187.023 46.9297C186.706 47.3203 186.31 47.6224 185.836 47.8359C185.367 48.0495 184.82 48.1562 184.195 48.1562C183.602 48.1562 183.073 48.0521 182.609 47.8438C182.146 47.6302 181.753 47.3281 181.43 46.9375C181.112 46.5469 180.87 46.0833 180.703 45.5469C180.536 45.0052 180.453 44.4036 180.453 43.7422C180.453 42.8307 180.604 42.0469 180.906 41.3906C181.214 40.7292 181.651 40.224 182.219 39.875C182.792 39.5208 183.477 39.3438 184.273 39.3438C185.096 39.3438 185.781 39.5312 186.328 39.9062C186.88 40.276 187.294 40.7917 187.57 41.4531C187.846 42.1146 187.984 42.8776 187.984 43.7422ZM181.266 43.7422C181.266 44.487 181.372 45.138 181.586 45.6953C181.799 46.2526 182.122 46.6875 182.555 47C182.992 47.3125 183.544 47.4688 184.211 47.4688C184.893 47.4688 185.453 47.3125 185.891 47C186.328 46.6875 186.651 46.25 186.859 45.6875C187.068 45.125 187.172 44.4766 187.172 43.7422C187.172 43.0286 187.073 42.3932 186.875 41.8359C186.677 41.2786 186.365 40.8411 185.938 40.5234C185.51 40.2005 184.953 40.0391 184.266 40.0391C183.281 40.0391 182.534 40.3672 182.023 41.0234C181.518 41.6797 181.266 42.5859 181.266 43.7422ZM196.141 39.5078V47.3047H197.281V50.875H196.508V48H190.008V50.875H189.242V47.3047H189.812C190.292 46.6432 190.693 45.9062 191.016 45.0938C191.339 44.2812 191.583 43.4062 191.75 42.4688C191.922 41.526 192.013 40.5391 192.023 39.5078H196.141ZM195.367 40.1719H192.742C192.701 41.1042 192.596 41.9974 192.43 42.8516C192.263 43.7005 192.034 44.5 191.742 45.25C191.451 45.9948 191.096 46.6797 190.68 47.3047H195.367V40.1719ZM199.867 39.5078V43.2266H205.219V39.5078H206.008V48H205.219V43.9219H199.867V48H199.07V39.5078H199.867ZM208.852 48V39.5078H209.648V43.0859H212.555C213.221 43.0859 213.766 43.1797 214.188 43.3672C214.615 43.5547 214.93 43.8255 215.133 44.1797C215.341 44.5339 215.445 44.9609 215.445 45.4609C215.445 45.9922 215.336 46.4479 215.117 46.8281C214.898 47.2031 214.562 47.4922 214.109 47.6953C213.656 47.8984 213.081 48 212.383 48H208.852ZM209.648 47.3281H212.297C213.104 47.3281 213.698 47.1745 214.078 46.8672C214.458 46.5599 214.648 46.0938 214.648 45.4688C214.648 44.901 214.464 44.4766 214.094 44.1953C213.729 43.9141 213.177 43.7734 212.438 43.7734H209.648V47.3281ZM216.797 48V39.5078H217.586V48H216.797ZM222.469 43.6328L219.508 39.5078H220.43L222.945 43.0938L225.461 39.5078H226.375L223.438 43.6328L226.562 48H225.633L222.945 44.1875L220.273 48H219.367L222.469 43.6328ZM231.133 39.5078H231.969L234.031 44.8984C234.156 45.2161 234.266 45.5104 234.359 45.7812C234.458 46.0469 234.544 46.2917 234.617 46.5156C234.69 46.7344 234.75 46.9349 234.797 47.1172H234.844C234.922 46.8776 235.026 46.5703 235.156 46.1953C235.286 45.8151 235.435 45.3932 235.602 44.9297L237.641 39.5078H238.484L234.609 49.5938C234.422 50.0833 234.216 50.4974 233.992 50.8359C233.768 51.1797 233.505 51.4375 233.203 51.6094C232.901 51.7865 232.536 51.875 232.109 51.875C231.917 51.875 231.742 51.8594 231.586 51.8281C231.43 51.8021 231.279 51.7656 231.133 51.7188V51.0391C231.268 51.0807 231.406 51.1146 231.547 51.1406C231.693 51.1719 231.852 51.1875 232.023 51.1875C232.32 51.1875 232.576 51.125 232.789 51C233.008 50.8802 233.203 50.6927 233.375 50.4375C233.547 50.1823 233.708 49.8568 233.859 49.4609L234.438 47.9531L231.133 39.5078ZM243.281 48.1562C242.438 48.1562 241.724 47.9818 241.141 47.6328C240.562 47.2786 240.125 46.776 239.828 46.125C239.536 45.4688 239.391 44.6927 239.391 43.7969C239.391 42.8646 239.56 42.0677 239.898 41.4062C240.237 40.7396 240.714 40.2292 241.328 39.875C241.943 39.5208 242.664 39.3438 243.492 39.3438C243.898 39.3438 244.276 39.3802 244.625 39.4531C244.974 39.526 245.289 39.6276 245.57 39.7578L245.359 40.4531C245.068 40.3229 244.758 40.224 244.43 40.1562C244.102 40.0885 243.786 40.0547 243.484 40.0547C242.786 40.0547 242.193 40.2083 241.703 40.5156C241.219 40.8177 240.846 41.25 240.586 41.8125C240.331 42.3698 240.203 43.0286 240.203 43.7891C240.203 44.5026 240.312 45.1354 240.531 45.6875C240.75 46.2344 241.086 46.6667 241.539 46.9844C241.992 47.2969 242.573 47.4531 243.281 47.4531C243.693 47.4531 244.083 47.4115 244.453 47.3281C244.828 47.2448 245.169 47.138 245.477 47.0078V47.7266C245.201 47.8516 244.88 47.9531 244.516 48.0312C244.156 48.1146 243.745 48.1562 243.281 48.1562ZM253.375 48H252.586V40.1953H249.617C249.518 41.5339 249.401 42.7005 249.266 43.6953C249.13 44.6849 248.956 45.5052 248.742 46.1562C248.529 46.8021 248.263 47.2839 247.945 47.6016C247.628 47.9193 247.234 48.0781 246.766 48.0781C246.63 48.0781 246.51 48.0703 246.406 48.0547C246.302 48.0443 246.219 48.0286 246.156 48.0078V47.3672C246.219 47.3828 246.289 47.3958 246.367 47.4062C246.445 47.4115 246.542 47.4141 246.656 47.4141C246.922 47.4141 247.159 47.3151 247.367 47.1172C247.576 46.9141 247.76 46.6068 247.922 46.1953C248.089 45.7839 248.232 45.2656 248.352 44.6406C248.471 44.0104 248.576 43.2682 248.664 42.4141C248.758 41.5599 248.841 40.5911 248.914 39.5078H253.375V48ZM263.25 43.7422C263.25 44.3984 263.169 44.9974 263.008 45.5391C262.846 46.0755 262.607 46.5391 262.289 46.9297C261.971 47.3203 261.576 47.6224 261.102 47.8359C260.633 48.0495 260.086 48.1562 259.461 48.1562C258.867 48.1562 258.339 48.0521 257.875 47.8438C257.411 47.6302 257.018 47.3281 256.695 46.9375C256.378 46.5469 256.135 46.0833 255.969 45.5469C255.802 45.0052 255.719 44.4036 255.719 43.7422C255.719 42.8307 255.87 42.0469 256.172 41.3906C256.479 40.7292 256.917 40.224 257.484 39.875C258.057 39.5208 258.742 39.3438 259.539 39.3438C260.362 39.3438 261.047 39.5312 261.594 39.9062C262.146 40.276 262.56 40.7917 262.836 41.4531C263.112 42.1146 263.25 42.8776 263.25 43.7422ZM256.531 43.7422C256.531 44.487 256.638 45.138 256.852 45.6953C257.065 46.2526 257.388 46.6875 257.82 47C258.258 47.3125 258.81 47.4688 259.477 47.4688C260.159 47.4688 260.719 47.3125 261.156 47C261.594 46.6875 261.917 46.25 262.125 45.6875C262.333 45.125 262.438 44.4766 262.438 43.7422C262.438 43.0286 262.339 42.3932 262.141 41.8359C261.943 41.2786 261.63 40.8411 261.203 40.5234C260.776 40.2005 260.219 40.0391 259.531 40.0391C258.547 40.0391 257.799 40.3672 257.289 41.0234C256.784 41.6797 256.531 42.5859 256.531 43.7422ZM271.961 41.5781C271.961 42.1146 271.82 42.5365 271.539 42.8438C271.263 43.151 270.896 43.3594 270.438 43.4688V43.5156C270.995 43.599 271.443 43.8099 271.781 44.1484C272.125 44.4818 272.297 44.9609 272.297 45.5859C272.297 46.0807 272.188 46.5078 271.969 46.8672C271.75 47.2266 271.414 47.5052 270.961 47.7031C270.513 47.901 269.938 48 269.234 48H265.602V39.5078H269.141C269.766 39.5078 270.286 39.5885 270.703 39.75C271.12 39.9062 271.432 40.138 271.641 40.4453C271.854 40.7474 271.961 41.125 271.961 41.5781ZM271.477 45.5859C271.477 44.9766 271.271 44.5391 270.859 44.2734C270.448 44.0078 269.844 43.875 269.047 43.875H266.398V47.3281H269.094C269.891 47.3281 270.487 47.1875 270.883 46.9062C271.279 46.6198 271.477 46.1797 271.477 45.5859ZM271.156 41.6406C271.156 41.1927 270.997 40.8411 270.68 40.5859C270.362 40.3255 269.823 40.1953 269.062 40.1953H266.398V43.1797H268.984C269.734 43.1797 270.284 43.0521 270.633 42.7969C270.982 42.5365 271.156 42.151 271.156 41.6406ZM275.43 39.5078V45.6094C275.43 45.7292 275.427 45.8516 275.422 45.9766C275.422 46.1016 275.419 46.2292 275.414 46.3594C275.414 46.4896 275.411 46.6172 275.406 46.7422C275.401 46.8672 275.393 46.9896 275.383 47.1094L280.453 39.5078H281.422V48H280.672V41.8438C280.672 41.6875 280.672 41.526 280.672 41.3594C280.677 41.1875 280.682 41.0182 280.688 40.8516C280.693 40.6797 280.698 40.5182 280.703 40.3672L275.609 48H274.664V39.5078H275.43ZM285.039 39.5078V45.6094C285.039 45.7292 285.036 45.8516 285.031 45.9766C285.031 46.1016 285.029 46.2292 285.023 46.3594C285.023 46.4896 285.021 46.6172 285.016 46.7422C285.01 46.8672 285.003 46.9896 284.992 47.1094L290.062 39.5078H291.031V48H290.281V41.8438C290.281 41.6875 290.281 41.526 290.281 41.3594C290.286 41.1875 290.292 41.0182 290.297 40.8516C290.302 40.6797 290.307 40.5182 290.312 40.3672L285.219 48H284.273V39.5078H285.039ZM290.227 36.1094C290.195 36.6094 290.076 37.0208 289.867 37.3438C289.664 37.6667 289.375 37.9089 289 38.0703C288.625 38.2266 288.172 38.3047 287.641 38.3047C287.104 38.3047 286.654 38.2292 286.289 38.0781C285.93 37.9219 285.651 37.6823 285.453 37.3594C285.26 37.0312 285.151 36.6146 285.125 36.1094H285.875C285.927 36.6823 286.091 37.0938 286.367 37.3438C286.648 37.5885 287.076 37.7109 287.648 37.7109C288.206 37.7109 288.635 37.5885 288.938 37.3438C289.245 37.099 289.422 36.6875 289.469 36.1094H290.227Z" fill="#F1F1F1"/>
<g clip-path="url(#clip1_6_251)">
<path d="M30.9617 11.877C31.0272 11.8664 31.0934 11.8615 31.1597 11.8623L42.4474 11.8623L42.2013 11.7478C41.9607 11.634 41.7418 11.479 41.5544 11.2899L38.3891 8.12456C37.9722 7.72661 37.9022 7.08642 38.2231 6.60772C38.5966 6.0976 39.3129 5.98685 39.8231 6.36037C39.8643 6.39056 39.9035 6.42348 39.9403 6.45889L45.6642 12.1829C46.1116 12.6297 46.112 13.3545 45.6651 13.8018C45.6649 13.8021 45.6645 13.8024 45.6642 13.8027L39.9403 19.5267C39.4926 19.9731 38.7678 19.9721 38.3213 19.5244C38.2862 19.4892 38.2534 19.4517 38.2231 19.4122C37.9022 18.9335 37.9722 18.2933 38.3891 17.8954L41.5487 14.7243C41.7167 14.5561 41.9098 14.4152 42.1211 14.3064L42.4646 14.1519L31.2227 14.1519C30.6379 14.1736 30.1248 13.7651 30.0149 13.1903C29.9137 12.5662 30.3376 11.9782 30.9617 11.877Z" fill="#2194FF"/>
</g>
<defs>
<clipPath id="clip0_6_251">
<rect width="22" height="22.0079" fill="white" transform="translate(0 0.0535583)"/>
</clipPath>
<clipPath id="clip1_6_251">
<rect width="16" height="16" fill="white" transform="matrix(-1 8.74228e-08 8.74228e-08 1 46 5)"/>
</clipPath>
</defs>
</svg>
